<svg width="65" height="65" viewBox="0 0 65 65" fill="none" xmlns="http://www.w3.org/2000/svg">
<path fill-rule="evenodd" clip-rule="evenodd" d="M9 0C4.02944 0 0 4.02944 0 9V38C0 42.9706 4.02944 47 9 47H14V59.3268C14 61.1549 16.2502 62.0248 17.4799 60.6721L29.9091 47H56C60.9706 47 65 42.9706 65 38V9C65 4.02944 60.9706 0 56 0H9Z" fill="#1C92FF"/>
<mask id="mask0_802_2905" style="mask-type:alpha" maskUnits="userSpaceOnUse" x="0" y="0" width="65" height="62">
<path d="M14 39V59.3268C14 61.1549 16.2502 62.0248 17.4799 60.6721L35.9588 40.3453C37.1267 39.0606 36.2152 37 34.4789 37H16C14.8954 37 14 37.8954 14 39Z" fill="#1C92FF"/>
<rect width="65" height="47" rx="9" fill="#1C92FF"/>
</mask>
<g mask="url(#mask0_802_2905)">
<circle cx="33" cy="-16" r="46" fill="url(#paint0_linear_802_2905)" fill-opacity="0.13"/>
</g>
<path d="M45 22V33C45 34.6569 43.6569 36 42 36H23C21.3431 36 20 34.6569 20 33V14C20 12.3431 21.3431 11 23 11H33" stroke="white" stroke-width="2" stroke-linecap="round"/>
<path d="M41.5564 8.41421C42.3374 7.63316 43.6037 7.63316 44.3848 8.41421L47.2132 11.2426C47.9943 12.0237 47.9943 13.29 47.2132 14.0711L44.3848 16.8995L38.7279 11.2426L41.5564 8.41421Z" fill="white"/>
<path d="M37.3137 12.6567L42.9706 18.3136L35.1924 26.0918L28.8284 26.7989L29.5355 20.4349L37.3137 12.6567Z" fill="white"/>
<defs>
<linearGradient id="paint0_linear_802_2905" x1="33" y1="-6.5" x2="33" y2="30" gradientUnits="userSpaceOnUse">
<stop stop-color="white" stop-opacity="0"/>
<stop offset="1" stop-color="white"/>
</linearGradient>
</defs>
</svg>
