<svg width="42" height="42" viewBox="0 0 42 42" fill="none" xmlns="http://www.w3.org/2000/svg">
<circle cx="21" cy="21" r="20.5" stroke="#E9E9E9"/>
<path d="M31 21C31 15.4771 26.5229 11 21 11C15.4771 11 11 15.4771 11 21C11 25.9913 14.6569 30.1283 19.4375 30.8785V23.8906H16.8984V21H19.4375V18.7969C19.4375 16.2906 20.9304 14.9063 23.2146 14.9063C24.3088 14.9063 25.4531 15.1016 25.4531 15.1016V17.5625H24.1921C22.9499 17.5625 22.5625 18.3333 22.5625 19.1241V21H25.3359L24.8926 23.8906H22.5625V30.8785C27.3432 30.1283 31 25.9913 31 21Z" fill="#343434"/>
</svg>
