<svg width="52" height="53" viewBox="0 0 52 53" fill="none" xmlns="http://www.w3.org/2000/svg">
<circle cx="26" cy="26.4316" r="25.5" stroke="#F9B000"/>
<path d="M38.381 26.4317C38.381 19.5939 32.8379 14.0508 26.0001 14.0508C19.1623 14.0508 13.6191 19.5939 13.6191 26.4317C13.6191 32.6114 18.1467 37.7335 24.0656 38.6623V30.0106H20.922V26.4317H24.0656V23.7041C24.0656 20.6011 25.914 18.8871 28.742 18.8871C30.0966 18.8871 31.5135 19.1289 31.5135 19.1289V22.1758H29.9523C28.4143 22.1758 27.9346 23.1301 27.9346 24.1092V26.4317H31.3684L30.8195 30.0106H27.9346V38.6623C33.8535 37.7335 38.381 32.6114 38.381 26.4317Z" fill="#343434"/>
</svg>
