<svg width="262" height="257" viewBox="0 0 262 257" fill="none" xmlns="http://www.w3.org/2000/svg">
<path fill-rule="evenodd" clip-rule="evenodd" d="M249.214 8.05263H9.98886V249.184H249.214V8.05263ZM5.96826 4V253.237H253.235V4H5.96826Z" fill="#C6702E"/>
<path fill-rule="evenodd" clip-rule="evenodd" d="M191.921 140.814V249.184H40.1436V96.1975H191.921V108.379C176.134 131.422 137.69 151.003 118.545 156.712C134.789 156.712 168.18 152.816 191.921 140.814Z" fill="url(#paint0_linear_9_14)"/>
<path fill-rule="evenodd" clip-rule="evenodd" d="M40.1436 96.1975H191.921V109.073H187.901V100.25H44.1641V245.132H187.901V139.156H191.921V249.184H40.1436V96.1975Z" fill="url(#paint1_linear_9_14)"/>
<path d="M191.921 96.1975C101.056 96.1975 52.8754 143.478 40.1436 167.118V208.151L94.9242 184.342L125.078 154.961C170.109 135.508 188.068 115.11 191.921 106.836V96.1975Z" fill="#C6702E"/>
<path d="M40.1436 249.184H92.9139C125.917 246.82 189.911 231.961 187.901 141.789C180.865 146.686 158.751 154.251 114.524 157.493C79.3444 183.329 48.6874 187.888 40.1436 191.941V249.184Z" fill="#E5A81C"/>
<path d="M153.725 57.6973C140.156 41.9933 129.267 41.149 123.571 40.4736C132.45 46.2148 146.801 51.0449 158.249 73.4012C167.328 91.1315 180.026 90.4561 186.896 91.1315C160.762 80.4933 167.295 73.4012 153.725 57.6973Z" fill="#C6702E"/>
<path d="M195.942 88.0923C195.942 59.2173 159.588 40.9804 147.192 37.4343C169.808 42.5001 199.962 57.191 199.962 88.5988C199.962 120.007 147.862 149.051 121.057 155.974C150.207 144.323 195.942 116.967 195.942 88.0923Z" fill="#E3A51D"/>
<path d="M225.091 95.1838C225.091 53.0365 176.341 32.8754 147.192 37.4342C171.818 38.5117 216.044 54.2522 216.044 95.1838C216.044 136.115 150.04 151.414 119.55 156.987C155.736 156.987 225.091 147.868 225.091 95.1838Z" fill="#C6702D"/>
<path fill-rule="evenodd" clip-rule="evenodd" d="M59.7053 158.094C56.5298 158.952 54.6453 162.242 55.4961 165.442L56.6199 169.67L55.1127 170.077C52.9956 170.649 51.7393 172.842 52.3065 174.976L52.5937 176.056C53.161 178.19 55.337 179.457 57.454 178.885L58.9613 178.478L59.9845 182.327C59.9903 182.349 59.9962 182.37 60.0023 182.392L45.8727 186.208C43.7556 186.78 42.4994 188.973 43.0666 191.107L43.3538 192.188C43.921 194.321 46.097 195.588 48.214 195.016L49.502 194.668L50.3544 197.875C51.2053 201.076 54.4693 202.975 57.6448 202.117L71.3627 198.412L69.0943 216.597L74.0038 235.065C74.7129 237.733 77.4329 239.316 80.0792 238.601L88.4737 236.334C91.12 235.619 92.6904 232.877 91.9814 230.21L82.7136 195.347L83.3259 195.181L93.7853 219.27C94.2499 220.34 95.5212 220.783 96.5419 220.23L99.5971 218.576C100.608 218.029 100.949 216.734 100.34 215.753L86.954 194.201L106.07 189.039C109.246 188.181 111.13 184.891 110.279 181.69L108.773 176.023C108.718 175.815 108.652 175.612 108.577 175.415L119.125 172.566C122.3 171.708 124.184 168.418 123.334 165.217L118.845 148.333C117.995 145.132 114.731 143.233 111.555 144.09L59.7053 158.094Z" fill="white"/>
<path d="M119.292 152.743L111.424 154.868C109.307 155.44 108.05 157.633 108.618 159.767L108.645 159.868C109.212 162.002 111.388 163.269 113.505 162.697L121.373 160.572C123.49 160 124.746 157.807 124.179 155.673L124.152 155.571C123.585 153.437 121.409 152.171 119.292 152.743Z" fill="white"/>
<path d="M98.1263 147.717L92.1338 149.336L99.7034 177.811L105.696 176.193L98.1263 147.717Z" fill="#E5A81C"/>
<defs>
<linearGradient id="paint0_linear_9_14" x1="116.032" y1="96.1975" x2="116.032" y2="249.184" gradientUnits="userSpaceOnUse">
<stop stop-color="#E1A827"/>
<stop offset="1" stop-color="#EFC51A"/>
</linearGradient>
<linearGradient id="paint1_linear_9_14" x1="116.032" y1="98.2238" x2="116.032" y2="247.158" gradientUnits="userSpaceOnUse">
<stop offset="0.520833" stop-color="#C7712F"/>
<stop offset="1" stop-color="#E5A71D"/>
</linearGradient>
</defs>
</svg>
