<svg width="52" height="53" viewBox="0 0 52 53" fill="none" xmlns="http://www.w3.org/2000/svg">
<circle cx="26" cy="26.4316" r="25.5" stroke="#F9B000"/>
<path d="M26.5888 38.7473C20.1205 38.7473 14.8574 33.4862 14.8574 27.0179C14.8574 20.5496 20.1205 15.2886 26.5888 15.2886C29.5191 15.2886 32.3239 16.3743 34.4893 18.3464L34.8838 18.707L31.0151 22.5756L30.6566 22.2688C29.5211 21.2967 28.0768 20.7608 26.5888 20.7608C23.1385 20.7608 20.3297 23.5676 20.3297 27.0179C20.3297 30.4682 23.1385 33.275 26.5888 33.275C29.0769 33.275 31.043 32.0041 31.9694 29.8387H26.0788V24.5577L37.579 24.5736L37.6647 24.978C38.2643 27.8247 37.7842 32.012 35.3539 35.0081C33.3419 37.4883 30.3936 38.7473 26.5888 38.7473Z" fill="#343434"/>
</svg>
