<svg width="42" height="42" viewBox="0 0 42 42" fill="none" xmlns="http://www.w3.org/2000/svg">
<circle opacity="0.15" cx="21" cy="21" r="20.5" stroke="#D2EDFD"/>
<path d="M21.4753 30.9474C16.2509 30.9474 12 26.6981 12 21.4737C12 16.2493 16.2509 12 21.4753 12C23.8421 12 26.1076 12.8769 27.8565 14.4698L28.1751 14.761L25.0505 17.8857L24.7609 17.6379C23.8437 16.8527 22.6772 16.4199 21.4753 16.4199C18.6885 16.4199 16.4199 18.6869 16.4199 21.4737C16.4199 24.2605 18.6885 26.5275 21.4753 26.5275C23.4849 26.5275 25.073 25.501 25.8212 23.752H21.0634V19.4866L30.3521 19.4995L30.4213 19.8261C30.9056 22.1253 30.5178 25.5074 28.5548 27.9273C26.9298 29.9305 24.5485 30.9474 21.4753 30.9474Z" fill="white"/>
</svg>
