<svg width="42" height="42" viewBox="0 0 42 42" fill="none" xmlns="http://www.w3.org/2000/svg">
<circle cx="21" cy="21" r="20.5" stroke="#E9E9E9"/>
<path d="M20.9999 15.7981C18.1773 15.7981 15.8386 18.0965 15.8386 20.9594C15.8386 23.8223 18.137 26.1207 20.9999 26.1207C23.8628 26.1207 26.1612 23.782 26.1612 20.9594C26.1612 18.1368 23.8225 15.7981 20.9999 15.7981ZM20.9999 24.2658C19.1854 24.2658 17.6935 22.7739 17.6935 20.9594C17.6935 19.1449 19.1854 17.6529 20.9999 17.6529C22.8144 17.6529 24.3064 19.1449 24.3064 20.9594C24.3064 22.7739 22.8144 24.2658 20.9999 24.2658Z" fill="#343434"/>
<path d="M26.3634 16.8465C27.0093 16.8465 27.5328 16.323 27.5328 15.6772C27.5328 15.0314 27.0093 14.5078 26.3634 14.5078C25.7176 14.5078 25.1941 15.0314 25.1941 15.6772C25.1941 16.323 25.7176 16.8465 26.3634 16.8465Z" fill="#343434"/>
<path d="M29.3871 12.6532C28.3387 11.5645 26.8468 11 25.1532 11H16.8468C13.3387 11 11 13.3387 11 16.8468V25.1129C11 26.8468 11.5645 28.3387 12.6935 29.4274C13.7823 30.4758 15.2339 31 16.8871 31H25.1129C26.8468 31 28.2984 30.4355 29.3468 29.4274C30.4355 28.379 31 26.8871 31 25.1532V16.8468C31 15.1532 30.4355 13.7016 29.3871 12.6532ZM29.2258 25.1532C29.2258 26.4032 28.7823 27.4113 28.0565 28.0968C27.3306 28.7823 26.3226 29.1452 25.1129 29.1452H16.8871C15.6774 29.1452 14.6694 28.7823 13.9435 28.0968C13.2177 27.371 12.8548 26.3629 12.8548 25.1129V16.8468C12.8548 15.6371 13.2177 14.629 13.9435 13.9032C14.629 13.2177 15.6774 12.8548 16.8871 12.8548H25.1935C26.4032 12.8548 27.4113 13.2177 28.1371 13.9435C28.8226 14.6694 29.2258 15.6774 29.2258 16.8468V25.1532Z" fill="#343434"/>
</svg>
