<svg width="52" height="53" viewBox="0 0 52 53" fill="none" xmlns="http://www.w3.org/2000/svg">
<circle cx="26" cy="26.4316" r="25.5" stroke="#F9B000"/>
<path d="M25.9995 19.9907C22.5049 19.9907 19.6094 22.8363 19.6094 26.3809C19.6094 29.9254 22.455 32.7711 25.9995 32.7711C29.5441 32.7711 32.3897 29.8755 32.3897 26.3809C32.3897 22.8863 29.4942 19.9907 25.9995 19.9907ZM25.9995 30.4746C23.753 30.4746 21.9058 28.6274 21.9058 26.3809C21.9058 24.1343 23.753 22.2872 25.9995 22.2872C28.2461 22.2872 30.0932 24.1343 30.0932 26.3809C30.0932 28.6274 28.2461 30.4746 25.9995 30.4746Z" fill="#343434"/>
<path d="M32.6411 21.2891C33.4407 21.2891 34.0889 20.6409 34.0889 19.8413C34.0889 19.0417 33.4407 18.3936 32.6411 18.3936C31.8415 18.3936 31.1934 19.0417 31.1934 19.8413C31.1934 20.6409 31.8415 21.2891 32.6411 21.2891Z" fill="#343434"/>
<path d="M36.3841 16.0976C35.0861 14.7497 33.239 14.0508 31.1422 14.0508H20.858C16.5147 14.0508 13.6191 16.9463 13.6191 21.2896V31.5239C13.6191 33.6706 14.3181 35.5178 15.7159 36.8657C17.0638 38.1637 18.8611 38.8127 20.9079 38.8127H31.0923C33.239 38.8127 35.0362 38.1138 36.3342 36.8657C37.6821 35.5677 38.381 33.7205 38.381 31.5738V21.2896C38.381 19.1929 37.6821 17.3956 36.3841 16.0976ZM36.1844 31.5738C36.1844 33.1214 35.6353 34.3695 34.7367 35.2182C33.838 36.0669 32.59 36.5162 31.0923 36.5162H20.9079C19.4102 36.5162 18.1622 36.0669 17.2635 35.2182C16.3649 34.3196 15.9156 33.0715 15.9156 31.5239V21.2896C15.9156 19.7919 16.3649 18.5439 17.2635 17.6453C18.1122 16.7966 19.4102 16.3472 20.9079 16.3472H31.1921C32.6898 16.3472 33.9379 16.7966 34.8365 17.6952C35.6852 18.5938 36.1844 19.8419 36.1844 21.2896V31.5738Z" fill="#343434"/>
</svg>
