<svg width="70" height="36" viewBox="0 0 70 36" fill="none" xmlns="http://www.w3.org/2000/svg">
<path d="M41.6455 18.617C41.0815 18.617 40.5834 18.5011 40.151 18.2692C39.7249 18.0311 39.3928 17.7022 39.1547 17.2823C38.9166 16.8625 38.7975 16.3863 38.7975 15.8537V11.8496H40.4706V15.9758C40.4706 16.214 40.5207 16.4207 40.621 16.5962C40.7275 16.7654 40.8685 16.897 41.044 16.991C41.2257 17.0787 41.4262 17.1225 41.6455 17.1225C41.8711 17.1225 42.0685 17.0787 42.2376 16.991C42.4068 16.897 42.5416 16.7654 42.6418 16.5962C42.7421 16.427 42.7922 16.2234 42.7922 15.9852V11.8496H44.484V15.8631C44.484 16.3957 44.365 16.8719 44.1269 17.2917C43.8888 17.7053 43.5567 18.0311 43.1306 18.2692C42.7107 18.5011 42.2157 18.617 41.6455 18.617Z" fill="#343434"/>
<path d="M47.9961 18.617C47.4384 18.617 46.9527 18.5324 46.5392 18.3632C46.1319 18.1941 45.759 17.9277 45.4207 17.5643L46.4828 16.4928C46.7146 16.7372 46.9621 16.9252 47.2253 17.0568C47.4885 17.1821 47.7861 17.2447 48.1182 17.2447C48.4002 17.2447 48.6164 17.1977 48.7668 17.1037C48.9234 17.0035 49.0018 16.8688 49.0018 16.6996C49.0018 16.5429 48.9454 16.4145 48.8326 16.3142C48.7198 16.2077 48.5694 16.1168 48.3814 16.0416C48.1997 15.9602 47.9961 15.885 47.7705 15.8161C47.5512 15.7409 47.3287 15.6531 47.1031 15.5529C46.8838 15.4464 46.6802 15.3179 46.4922 15.1675C46.3105 15.0171 46.1632 14.8291 46.0504 14.6036C45.9376 14.378 45.8812 14.0991 45.8812 13.767C45.8812 13.3409 45.9815 12.9775 46.182 12.6767C46.3888 12.376 46.6739 12.1441 47.0373 11.9812C47.4008 11.8183 47.8237 11.7368 48.3062 11.7368C48.7887 11.7368 49.2336 11.8183 49.6409 11.9812C50.0482 12.1441 50.3834 12.3697 50.6466 12.6579L49.5751 13.72C49.3746 13.5195 49.1709 13.3691 48.9642 13.2689C48.7574 13.1686 48.5318 13.1185 48.2874 13.1185C48.0556 13.1185 47.8739 13.1592 47.7423 13.2407C47.6107 13.3221 47.5449 13.4381 47.5449 13.5885C47.5449 13.7388 47.6013 13.861 47.7141 13.955C47.8269 14.049 47.9741 14.1336 48.1558 14.2088C48.3438 14.2777 48.5475 14.3498 48.7668 14.425C48.9924 14.5002 49.2148 14.5879 49.4341 14.6882C49.6534 14.7884 49.854 14.9169 50.0357 15.0735C50.2237 15.2302 50.374 15.4276 50.4868 15.6657C50.5996 15.9038 50.656 16.192 50.656 16.5304C50.656 17.1946 50.421 17.7084 49.9511 18.0719C49.4874 18.4353 48.8357 18.617 47.9961 18.617Z" fill="#343434"/>
<path d="M51.2726 18.5136L53.8574 11.8496H55.4835L58.04 18.5136H56.2824L54.3556 12.9117H54.9665L52.9927 18.5136H51.2726ZM52.8423 17.3481V16.0134H56.5174V17.3481H52.8423Z" fill="#343434"/>
<path d="M40.9876 26.8768C40.4299 26.8768 39.9443 26.7922 39.5307 26.623C39.1234 26.4538 38.7506 26.1875 38.4122 25.8241L39.4743 24.7526C39.7062 24.9969 39.9537 25.1849 40.2169 25.3165C40.4801 25.4418 40.7777 25.5045 41.1098 25.5045C41.3918 25.5045 41.608 25.4575 41.7583 25.3635C41.915 25.2633 41.9933 25.1285 41.9933 24.9593C41.9933 24.8027 41.9369 24.6742 41.8241 24.574C41.7113 24.4675 41.561 24.3766 41.373 24.3014C41.1913 24.2199 40.9876 24.1448 40.762 24.0758C40.5427 24.0006 40.3203 23.9129 40.0947 23.8126C39.8754 23.7061 39.6717 23.5777 39.4837 23.4273C39.302 23.2769 39.1548 23.0889 39.042 22.8633C38.9292 22.6378 38.8728 22.3589 38.8728 22.0268C38.8728 21.6007 38.973 21.2373 39.1736 20.9365C39.3803 20.6357 39.6655 20.4039 40.0289 20.241C40.3923 20.078 40.8153 19.9966 41.2978 19.9966C41.7803 19.9966 42.2252 20.078 42.6325 20.241C43.0398 20.4039 43.375 20.6295 43.6382 20.9177L42.5667 21.9798C42.3662 21.7793 42.1625 21.6289 41.9557 21.5286C41.7489 21.4284 41.5234 21.3783 41.279 21.3783C41.0471 21.3783 40.8654 21.419 40.7338 21.5005C40.6022 21.5819 40.5364 21.6978 40.5364 21.8482C40.5364 21.9986 40.5928 22.1208 40.7056 22.2148C40.8184 22.3088 40.9657 22.3934 41.1474 22.4686C41.3354 22.5375 41.539 22.6096 41.7583 22.6847C41.9839 22.7599 42.2064 22.8477 42.4257 22.9479C42.645 23.0482 42.8455 23.1766 43.0272 23.3333C43.2152 23.4899 43.3656 23.6873 43.4784 23.9254C43.5912 24.1636 43.6476 24.4518 43.6476 24.7902C43.6476 25.4544 43.4126 25.9682 42.9426 26.3316C42.4789 26.6951 41.8273 26.8768 40.9876 26.8768Z" fill="#343434"/>
<path d="M46.262 24.386V23.1359H47.5779C47.7408 23.1359 47.8881 23.1046 48.0197 23.0419C48.1575 22.973 48.2672 22.8727 48.3486 22.7411C48.4301 22.6096 48.4708 22.4466 48.4708 22.2524C48.4708 22.0581 48.4301 21.8952 48.3486 21.7636C48.2672 21.6258 48.1575 21.5255 48.0197 21.4629C47.8881 21.3939 47.7408 21.3595 47.5779 21.3595H46.262V20.1094H47.8693C48.2954 20.1094 48.6807 20.1971 49.0254 20.3725C49.37 20.5417 49.6426 20.7861 49.8431 21.1057C50.0436 21.419 50.1439 21.8012 50.1439 22.2524C50.1439 22.691 50.0436 23.0732 49.8431 23.3991C49.6426 23.7187 49.37 23.963 49.0254 24.1322C48.6807 24.3014 48.2954 24.386 47.8693 24.386H46.262ZM44.9273 26.7734V20.1094H46.6098V26.7734H44.9273Z" fill="#343434"/>
<path d="M52.6464 24.0758V22.8727H53.9152C54.191 22.8727 54.4009 22.8069 54.545 22.6753C54.6954 22.5375 54.7706 22.3526 54.7706 22.1208C54.7706 21.8952 54.6954 21.7135 54.545 21.5756C54.4009 21.4315 54.191 21.3595 53.9152 21.3595H52.6464V20.1094H54.1502C54.6014 20.1094 54.9962 20.194 55.3345 20.3631C55.6792 20.5323 55.9486 20.7642 56.1429 21.0587C56.3371 21.3532 56.4342 21.6978 56.4342 22.0926C56.4342 22.4874 56.334 22.8351 56.1335 23.1359C55.9392 23.4304 55.6666 23.6623 55.3157 23.8314C54.9648 23.9944 54.5544 24.0758 54.0844 24.0758H52.6464ZM51.3117 26.7734V20.1094H52.9941V26.7734H51.3117ZM54.921 26.7734L52.9847 23.916L54.498 23.5495L56.8666 26.7734H54.921Z" fill="#343434"/>
<path d="M57.143 26.7734L59.7278 20.1094H61.3538L63.9104 26.7734H62.1528L60.2259 21.1715H60.8369L58.863 26.7734H57.143ZM58.7127 25.6079V24.2732H62.3877V25.6079H58.7127Z" fill="#343434"/>
<path d="M66.1934 24.386L63.6462 20.1094H65.573L67.5187 23.5777H66.1652L68.1108 20.1094H70.0001L67.4341 24.386H66.1934ZM65.996 26.7734V23.6999H67.6785V26.7734H65.996Z" fill="#343434"/>
<path d="M38.901 35.0332V28.3691H40.1135L42.6701 32.2322H42.0967L44.6439 28.3691H45.8564V35.0332H44.1927V31.1513L44.4559 31.2265L42.9238 33.5293H41.8335L40.3109 31.2265L40.5741 31.1513V35.0332H38.901Z" fill="#343434"/>
<path d="M47.4699 35.0332V28.3691H49.1524V35.0332H47.4699ZM48.8046 35.0332V33.6139H52.4139V35.0332H48.8046ZM48.8046 32.3262V30.9445H52.0755V32.3262H48.8046ZM48.8046 29.7884V28.3691H52.3575V29.7884H48.8046Z" fill="#343434"/>
<path fill-rule="evenodd" clip-rule="evenodd" d="M34.4637 0.569647H0.569647V34.4637H34.4637V0.569647ZM0 0V35.0333H35.0333V0H0Z" fill="#C6702E"/>
<path fill-rule="evenodd" clip-rule="evenodd" d="M26.346 19.2302V34.4632H4.84186V12.959H26.346V14.6711C24.1093 17.9101 18.6624 20.6624 15.95 21.465C18.2514 21.465 22.9823 20.9173 26.346 19.2302Z" fill="url(#paint0_linear_802_2813)"/>
<path fill-rule="evenodd" clip-rule="evenodd" d="M4.84186 12.959H26.346V14.7688H25.7764V13.5286H5.41151V33.8935H25.7764V18.9973H26.346V34.4632H4.84186V12.959Z" fill="url(#paint1_linear_802_2813)"/>
<path d="M26.346 12.959C13.472 12.959 6.64574 19.6049 4.84186 22.9278V28.6955L12.6033 25.3488L16.8757 21.2189C23.2557 18.4846 25.8001 15.6173 26.346 14.4543V12.959Z" fill="#C6702E"/>
<path d="M4.84186 34.4633H12.3185C16.9943 34.131 26.0612 32.0423 25.7764 19.3677C24.7795 20.056 21.6465 21.1193 15.3803 21.5751C10.3959 25.2066 6.05236 25.8474 4.84186 26.4171V34.4633Z" fill="#E5A81C"/>
<path d="M20.9344 7.54747C19.0118 5.34008 17.469 5.22141 16.662 5.12646C17.92 5.93347 19.9533 6.6124 21.5753 9.75485C22.8616 12.2471 24.6608 12.1521 25.634 12.2471C21.9313 10.7517 22.857 9.75485 20.9344 7.54747Z" fill="#C6702E"/>
<path d="M26.9157 11.8198C26.9157 7.76107 21.7652 5.19766 20.0087 4.69922C23.213 5.41128 27.4854 7.47625 27.4854 11.891C27.4854 16.3058 20.1037 20.3883 16.306 21.3614C20.436 19.7237 26.9157 15.8785 26.9157 11.8198Z" fill="#E3A51D"/>
<path d="M31.0458 12.8167C31.0458 6.89238 24.1388 4.05849 20.0089 4.69929C23.4979 4.85075 29.7641 7.06327 29.7641 12.8167C29.7641 18.5701 20.4124 20.7206 16.0925 21.5039C21.2194 21.5039 31.0458 20.2221 31.0458 12.8167Z" fill="#C6702D"/>
<path fill-rule="evenodd" clip-rule="evenodd" d="M7.6144 24.4962L7.3703 24.5616C7.02843 24.6532 6.67703 24.4503 6.58542 24.1084C6.49382 23.7665 6.6967 23.4151 7.03857 23.3235L7.26527 23.2628C7.29908 22.379 7.90083 21.5823 8.79993 21.3414L13.7728 20.0089C14.8781 19.7127 16.0142 20.3687 16.3103 21.4739C16.6065 22.5792 15.9506 23.7153 14.8453 24.0115L14.514 24.1002C14.5125 24.1346 14.5083 24.1685 14.5014 24.2016C14.5767 24.3137 14.6351 24.4399 14.672 24.5775C14.8515 25.2474 14.454 25.936 13.7841 26.1154L11.474 26.7344L13.2412 29.5571C13.3975 29.8069 13.31 30.1368 13.0505 30.2762C12.7884 30.4169 12.462 30.3042 12.3428 30.0317L10.96 26.8722L10.8732 26.8954L12.027 31.2014C12.2155 31.9047 11.7981 32.6277 11.0947 32.8162C10.3913 33.0046 9.66837 32.5872 9.47991 31.8839L8.94366 29.8826L9.26507 27.3263L7.71959 27.7404C7.04973 27.9199 6.36119 27.5224 6.1817 26.8525C6.17702 26.835 6.17273 26.8176 6.16883 26.8001L6.06104 26.829C5.71917 26.9206 5.36777 26.7177 5.27616 26.3758C5.18456 26.0339 5.38744 25.6825 5.72931 25.5909L8.05183 24.9686C7.88395 24.8362 7.73577 24.6774 7.6144 24.4962Z" fill="white"/>
<rect x="14.3978" y="21.3511" width="2.27859" height="1.13929" rx="0.569647" transform="rotate(-15 14.3978 21.3511)" fill="white"/>
<rect x="12.2079" y="20.4282" width="0.878981" height="4.14377" transform="rotate(-15 12.2079 20.4282)" fill="#E5A81C"/>
<defs>
<linearGradient id="paint0_linear_802_2813" x1="15.5939" y1="12.959" x2="15.5939" y2="34.4632" gradientUnits="userSpaceOnUse">
<stop stop-color="#E1A827"/>
<stop offset="1" stop-color="#EFC51A"/>
</linearGradient>
<linearGradient id="paint1_linear_802_2813" x1="15.594" y1="13.2438" x2="15.594" y2="34.1783" gradientUnits="userSpaceOnUse">
<stop offset="0.520833" stop-color="#C7712F"/>
<stop offset="1" stop-color="#E5A71D"/>
</linearGradient>
</defs>
</svg>
