<svg width="52" height="53" viewBox="0 0 52 53" fill="none" xmlns="http://www.w3.org/2000/svg">
<circle cx="26" cy="26.4316" r="25.5" stroke="#F9B000"/>
<path d="M24.2622 12.8158C22.6692 12.8758 19.3699 13.8681 18.6513 14.6089C18.3776 14.8692 18.3086 15.2608 18.3776 15.5211C18.5133 15.7814 24.0553 24.1911 24.0553 24.1911C24.8762 25.4948 25.3034 25.3502 25.5103 25.2857C25.7149 25.2189 26.3979 24.9742 26.2622 23.4102C26.1933 21.6481 25.646 13.8926 25.5792 13.501C25.4413 13.1762 25.2366 12.9137 24.825 12.8469C24.6804 12.8158 24.4891 12.8069 24.2622 12.8158ZM32.9766 20.7849C32.8164 20.7916 32.6607 20.8406 32.525 20.9384C32.0978 21.3589 32.2491 21.0608 29.7907 24.3179L28.6272 25.8152C28.3535 26.14 28.418 26.685 28.6917 27.0766C28.9653 27.4682 29.3369 27.6751 29.8575 27.575C30.0622 27.5082 30.4737 27.4437 31.2235 27.2479C35.94 26.2067 35.9823 26.2134 36.1892 26.0844C36.4606 25.8886 36.5986 25.6283 36.5986 25.2367V25.1722C36.4606 24.131 34.4383 21.33 33.4816 20.8739C33.3103 20.8094 33.139 20.776 32.9766 20.7849ZM17.4566 25.3235C17.1829 25.3235 16.8403 25.4547 16.6334 25.7796C16.1551 26.4336 16.0082 28.5138 16.1439 29.9488C16.2129 30.4049 16.2819 30.7764 16.4176 31.0367C16.6223 31.3638 16.8959 31.5595 17.2385 31.5595C17.4432 31.5595 17.2875 31.4995 21.3922 30.327L23.241 29.7397C23.7193 29.6084 24.053 29.2814 24.053 28.7608C24.053 28.2402 23.7994 27.8086 23.3211 27.6128L22.0218 27.0922C17.5745 25.3302 17.6612 25.3235 17.4566 25.3235ZM29.8174 29.911C29.4615 29.8843 29.1277 29.9733 28.8741 30.2447C28.6539 30.485 28.487 31.168 28.7607 31.5595L29.5126 32.6653C31.9755 36.4474 31.9888 36.6409 32.1935 36.7722C32.4671 37.0325 32.8098 37.0347 33.1524 36.9035C34.247 36.5119 36.3872 33.92 36.5229 32.8766C36.5919 32.5518 36.4562 32.2247 36.1803 31.8999C36.0446 31.7687 35.7598 31.7219 31.9265 30.5317L30.1734 29.9755C30.0555 29.9421 29.9353 29.9199 29.8174 29.911ZM25.2433 31.0545C24.8762 31.0145 24.5225 31.0879 24.3178 31.3816L23.4279 32.4228C20.3488 35.8778 20.2131 36.0736 20.1441 36.2694C20.0751 36.4007 20.0751 36.5297 20.0751 36.661C20.1441 36.8545 20.2131 36.9858 20.3488 37.1816C21.1007 37.9647 24.4246 39.1861 25.5192 38.9903C25.8618 38.9258 26.1354 38.7278 26.2711 38.403C26.3401 38.2072 26.3379 38.0781 26.3379 33.9712V32.0801C26.3401 31.5084 26.0887 31.3193 25.6081 31.1235C25.4902 31.0901 25.3656 31.0656 25.2433 31.0545Z" fill="#343434"/>
</svg>
