<svg width="52" height="53" viewBox="0 0 52 53" fill="none" xmlns="http://www.w3.org/2000/svg">
<circle cx="26" cy="26.4316" r="25.5" stroke="#F9B000"/>
<path d="M37.8638 20.4718C37.579 19.4063 36.74 18.5674 35.6746 18.2826C33.7434 17.7651 26.0001 17.7651 26.0001 17.7651C26.0001 17.7651 18.2568 17.7651 16.3256 18.2826C15.2603 18.5674 14.4212 19.4063 14.1365 20.4718C13.6191 22.4028 13.6191 26.432 13.6191 26.432C13.6191 26.432 13.6191 30.461 14.1365 32.3919C14.4212 33.4573 15.2603 34.2965 16.3256 34.5812C18.2568 35.0985 26.0001 35.0985 26.0001 35.0985C26.0001 35.0985 33.7434 35.0985 35.6746 34.5812C36.74 34.2965 37.579 33.4573 37.8638 32.3919C38.381 30.461 38.381 26.432 38.381 26.432C38.381 26.432 38.381 22.4028 37.8638 20.4718ZM23.5238 30.1463V22.7176L29.957 26.432L23.5238 30.1463Z" fill="#343434"/>
</svg>
